<svg width="18" height="12" viewBox="0 0 18 12" fill="none" xmlns="http://www.w3.org/2000/svg">
<path d="M17.5 6C17.5 6.08721 17.4673 6.24734 17.3611 6.48341C17.2583 6.71211 17.1003 6.98172 16.8869 7.27824C16.4603 7.87099 15.8333 8.54209 15.0502 9.17318C13.4791 10.4393 11.3365 11.5 9 11.5C6.6635 11.5 4.52093 10.4393 2.94978 9.17318C2.16665 8.54209 1.53968 7.87099 1.11309 7.27824C0.899686 6.98172 0.741704 6.71211 0.638862 6.48341C0.532701 6.24734 0.5 6.08721 0.5 6C0.5 5.91279 0.532701 5.75266 0.638862 5.51659C0.741704 5.28789 0.899686 5.01828 1.11309 4.72176C1.53968 4.12901 2.16665 3.45791 2.94978 2.82682C4.52093 1.56068 6.6635 0.5 9 0.5C11.3365 0.5 13.4791 1.56068 15.0502 2.82682C15.8333 3.45791 16.4603 4.12901 16.8869 4.72176C17.1003 5.01828 17.2583 5.28789 17.3611 5.51659C17.4673 5.75266 17.5 5.91279 17.5 6Z" stroke="#2791C2"/>
</svg>
